# AST/ASF file generated using VICON BodyLanguage
# -----------------------------------------------
:version 1.10
:name VICON
:units
  mass 1.0
  length 0.45
  angle deg
:documentation
   .ast/.asf automatically generated from VICON data using
   VICON BodyBuilder and BodyLanguage model FoxedUp or BRILLIANT.MOD
:root
   order TX TY TZ RX RY RZ
   axis XYZ
   position 0 0 0  
   orientation 0 0 0 
:bonedata
  begin
     id 1 
     name lhipjoint
     direction 0.734343 -0.627749 0.258209 
     length 2.5437 
     axis 0 0 0  XYZ
  end
  begin
     id 2 
     name lfemur
     direction 0.34202 -0.939693 0  
     length 6.7391  
     axis 0 0 20  XYZ
    dof rx ry rz
    limits (-160.0 20.0)
           (-70.0 70.0)
           (-60.0 70.0)
  end
  begin
     id 3 
     name ltibia
     direction 0.34202 -0.939693 0   
     length 7.21536   
     axis 0 0 20   XYZ
    dof rx
    limits (-10.0 170.0)
  end
  begin
     id 4 
     name lfoot
     direction 0.0489572 -0.134509 0.989702   
     length 1.61313   
     axis -90 7.62852e-016 20   XYZ
    dof rx rz
    limits (-45.0 90.0)
           (-70.0 20.0)
  end
  begin
     id 5 
     name ltoes
     direction 1.53451e-011 -4.21692e-011 1   
     length 0.823104   
     axis -90 7.62852e-016 20   XYZ
    dof rx
    limits (-90.0 20.0)
  end
  begin
     id 6 
     name rhipjoint
     direction -0.746398 -0.615468 0.253157   
     length 2.59446  
     axis 0 0 0  XYZ 
  end
  begin
     id 7 
     name rfemur
     direction -0.34202 -0.939693 0   
     length 6.7075   
     axis 0 0 -20   XYZ
    dof rx ry rz
    limits (-160.0 20.0)
           (-70.0 70.0)
           (-70.0 60.0)
  end
  begin
     id 8 
     name rtibia
     direction -0.34202 -0.939693 0   
     length 7.27262   
     axis 0 0 -20   XYZ
    dof rx
    limits (-10.0 170.0)
 end
 begin
     id 9 
     name rfoot
     direction -0.0455203 -0.125066 0.991104   
     length 1.91095  
     axis -90 -7.62852e-016 -20   XYZ
    dof rx rz
    limits (-45.0 90.0)
           (-20.0 70.0)
  end
  begin
     id 10 
     name rtoes
     direction -1.53601e-011 -4.21913e-011 1   
     length 0.969037   
     axis -90 -7.62852e-016 -20   XYZ
    dof rx
    limits (-90.0 20.0)
  end
  begin
     id 11 
     name lowerback
     direction 0.0181546 0.999122 -0.0377542   
     length 1.99916   
     axis 0 0 0   XYZ
    dof rx ry rz
    limits (-20.0 45.0)
           (-30.0 30.0)
           (-30.0 30.0)
  end
  begin
     id 12 
     name upperback
     direction 0.0203486 0.99589 0.0882534   
     length 1.951   
     axis 0 0 0   XYZ
    dof rx ry rz
    limits (-20.0 45.0)
           (-30.0 30.0)
           (-30.0 30.0)
  end
  begin
     id 13 
     name thorax
     direction 0.0131685 0.994241 0.106355   
     length 1.97461   
     axis 0 0 0   XYZ
    dof rx ry rz
    limits (-20.0 45.0)
           (-30.0 30.0)
           (-30.0 30.0)
  end
  begin
     id 14 
     name lowerneck
     direction -0.0281395 0.999325 0.023617   
     length 1.7959   
     axis 0 0 0   XYZ
    dof rx ry rz
    limits (-20.0 45.0)
           (-30.0 30.0)
           (-30.0 30.0)
  end
  begin
     id 15 
     name upperneck
     direction 0.0288721 0.991984 -0.123019   
     length 1.79917   
     axis 0 0 0   XYZ
    dof rx ry rz
    limits (-20.0 45.0)
           (-30.0 30.0)
           (-30.0 30.0)
  end
  begin
     id 16
     name head
     direction 0.0133797 0.998944 -0.0439492  
     length 1.80902  
     axis 0 0 0   XYZ
    dof rx ry rz
    limits (-20.0 45.0)
           (-30.0 30.0)
           (-30.0 30.0)
  end
  begin
     id 17 
     name lclavicle
     direction 0.919195 0.377107 0.113449  
     length 3.17815  
     axis 0 0 0   XYZ
    dof ry rz
    limits (-20.0 10.0)
           (0.0 20.0)
  end
  begin
     id 18 
     name lhumerus
     direction 1 -4.48959e-011 2.13129e-027   
     length 4.84137   
     axis 180 -30 -90   XYZ
    dof rx ry rz
    limits (-60.0 90.0)
           (-90.0 90.0)
           (-90.0 90.0)
  end
  begin
     id 19
     name lradius
     direction 1 -4.48957e-011 -6.30627e-028   
     length 3.2452   
     axis 180 -30 -90   XYZ
    dof rx
    limits (-10.0 170.0)
  end
  begin
     id 20
     name lwrist
     direction 1 -4.4901e-011 9.13299e-027   
     length 1.6226   
     axis -6.84618e-015 90 90   XYZ
    dof ry
    limits (-180.0 0.0)
 end
  begin
     id 21 
     name lhand
     direction 1 -4.48816e-011 1.82293e-026   
     length 0.521221   
     axis -1.16502e-014 90 90   XYZ
    dof rx rz
    limits (-90.0 90.0)
           (-45.0 45.0)
  end
  begin
     id 22 
     name lfingers
     direction 1 -4.49108e-011 3.65687e-026   
     length 0.420221   
     axis -2.33008e-014 90 90   XYZ
    dof rx
    limits (0.0 90.0)
  end
  begin
     id 23
     name lthumb
     direction 0.707107 -6.34943e-011 0.707107   
     length 0.603356   
     axis -90 45 5.69224e-014   XYZ
    dof rx rz
    limits (-45.0 45.0)
           (-45.0 45.0)
  end
  begin
     id 24 
     name rclavicle
     direction -0.90847 0.38596 0.160368   
     length 3.12973  
     axis 0 0 0   XYZ 
    dof ry rz
    limits (-10.0 20.0)
           (-20.0 0.0)
  end
  begin
     id 25 
     name rhumerus
     direction -1 -4.48974e-011 4.47268e-028  
     length 4.72284   
     axis 180 30 90   XYZ
    dof rx ry rz
    limits (-90.0 60.0)
           (-90.0 90.0)
           (-90.0 90.0)
  end
  begin
     id 26 
     name rradius
     direction -1 -4.48969e-011 3.43203e-027   
     length 3.23459   
     axis 180 30 90   XYZ
    dof rx
    limits (-10.0 170.0)
  end
  begin
     id 27 
     name rwrist
     direction -1 -4.48969e-011 9.12911e-027   
     length 1.6173   
     axis -6.84618e-015 -90 -90   XYZ
    dof ry
    limits (-180.0 0.0)
  end
  begin
     id 28
     name rhand
     direction -1 -4.49194e-011 1.83006e-026   
     length 0.307416   
     axis -1.16502e-014 -90 -90   XYZ
    dof rx rz
    limits (-90.0 90.0)
           (-45.0 45.0)
  end
  begin
     id 29
     name rfingers
     direction -1 -4.48423e-011 3.63103e-026   
     length 0.247847   
     axis -2.33008e-014 -90 -90   XYZ
    dof rx
    limits (0.0 90.0)
  end
  begin
     id 30
     name rthumb
     direction -0.707107 -6.34802e-011 0.707107   
     length 0.35586   
     axis -90 -45 -5.69224e-014   XYZ
    dof rx rz
    limits (-45.0 45.0)
           (-45.0 45.0)
  end
:hierarchy
  begin
    root lhipjoint rhipjoint lowerback
    lhipjoint lfemur
    lfemur ltibia
    ltibia lfoot
    lfoot ltoes
    rhipjoint rfemur
    rfemur rtibia
    rtibia rfoot
    rfoot rtoes
    lowerback upperback
    upperback thorax
    thorax lowerneck lclavicle rclavicle
    lowerneck upperneck
    upperneck head
    lclavicle lhumerus
    lhumerus lradius
    lradius lwrist
    lwrist lhand lthumb
    lhand lfingers
    rclavicle rhumerus
    rhumerus rradius
    rradius rwrist
    rwrist rhand rthumb
    rhand rfingers
  end

#!OML:ASF H:\Terrain\Patient Classification 1\Animal1\Tuesday\Animal1.ASF
:FULLY-SPECIFIED
:DEGREES
1441
root 13.1129 16.5989 -12.9533 12.1187 -26.6741 2.41052
lowerback 7.46022 -0.898808 -1.09647
upperback -2.72217 -1.32421 -0.100371
thorax -7.0206 -0.604219 0.6885
lowerneck -14.2384 0.298381 -3.71331
upperneck -0.308295 0.610487 8.23601
head 2.41134 0.571156 3.4693
rclavicle 2.3233e-014 1.19271e-014
rhumerus -7.50712 18.9079 -96.0147
rradius 110.107
rwrist 33.4342
rhand 47.6644 -11.2962
rfingers 7.12502
rthumb 68.3536 -11.663
lclavicle 2.3233e-014 1.19271e-014
lhumerus -31.4336 -31.1652 111.158
lradius 111.621
lwrist -69.1394
lhand 42.6207 64.6213
lfingers 7.12502
lthumb 64.5288 72.5637
rfemur -26.7905 25.0503 16.1068
rtibia 23.5109
rfoot -3.85677 -29.3306
rtoes -1.8323
lfemur -17.4731 -27.223 -17.9665
ltibia 17.1416
lfoot -13.4885 23.0631
ltoes 3.15408
1442
root 13.1137 16.5987 -12.9594 12.1044 -26.6661 2.37731
lowerback 7.59023 -0.909993 -1.20191
upperback -2.7076 -1.34431 0.00816399
thorax -7.07474 -0.606111 0.866572
lowerneck -14.154 0.30159 -3.78321
upperneck -0.628184 0.647504 8.10985
head 2.28318 0.578588 3.43201
rclavicle 5.15598e-014 4.96962e-015
rhumerus -7.42437 18.9942 -95.8448
rradius 110.139
rwrist 33.2544
rhand 47.8873 -11.3071
rfingers 7.12502
rthumb 68.5117 -11.2762
lclavicle 5.15598e-014 4.96962e-015
lhumerus -31.463 -31.0587 111.303
lradius 111.669
lwrist -68.9276
lhand 41.8113 64.5885
lfingers 7.12502
lthumb 63.8786 73.5284
rfemur -26.8067 25.1511 16.1225
rtibia 23.5146
rfoot -4.18471 -29.4899
rtoes -1.07957
lfemur -17.4895 -27.6575 -17.8414
ltibia 17.1578
lfoot -13.5937 23.4361
ltoes 3.64499
1443
root 13.1146 16.5985 -12.9631 12.1458 -26.6836 2.27004
lowerback 7.65752 -0.874152 -1.22866
upperback -2.68051 -1.29275 0.110667
thorax -7.08289 -0.576998 0.983125
lowerneck -14.0109 0.273567 -3.87914
upperneck -1.10005 0.648466 8.09559
head 2.09688 0.568603 3.43324
rclavicle -4.78574e-014 -9.74045e-015
rhumerus -7.3518 18.9831 -95.6532
rradius 110.153
rwrist 33.0468
rhand 47.7397 -11.1737
rfingers 7.12502
rthumb 68.4071 -11.4068
lclavicle -4.78574e-014 -9.74045e-015
lhumerus -31.4992 -31.0027 111.483
lradius 111.713
lwrist -68.8883
lhand 42.0189 64.4686
lfingers 7.12502
lthumb 64.0462 73.1576
rfemur -26.822 25.1004 16.2434
rtibia 23.5147
rfoot -4.37424 -29.349
rtoes -0.467148
lfemur -17.5142 -28.1471 -17.6496
ltibia 17.1724
lfoot -13.6129 23.9627
ltoes 3.98859
1444
root 13.114 16.5975 -12.9653 12.1729 -26.686 2.15937
lowerback 7.80352 -0.798421 -1.60927
upperback -2.67359 -1.21013 0.458223
thorax -7.14722 -0.509917 1.55342
lowerneck -13.967 0.273758 -3.99193
upperneck -1.49643 0.696103 7.81196
head 1.94961 0.577243 3.34951
rclavicle -5.76476e-014 1.05356e-014
rhumerus -7.32754 19.0608 -95.1111
rradius 110.213
rwrist 32.9807
rhand 47.8845 -10.6061
rfingers 7.12502
rthumb 68.5097 -10.5804
lclavicle -5.76476e-014 1.05356e-014
lhumerus -31.3169 -30.8755 111.944
lradius 111.694
lwrist -68.9975
lhand 42.2497 64.4533
lfingers 7.12502
lthumb 64.2318 72.8594
rfemur -26.8178 25.247 16.3279
rtibia 23.533
rfoot -4.58655 -29.4816
rtoes -0.352559
lfemur -17.4931 -28.221 -17.532
ltibia 17.1546
lfoot -13.5278 24.1056
ltoes 3.89381
1445
root 13.1128 16.5971 -12.9656 12.0597 -26.6934 2.32267
lowerback 7.98634 -0.738424 -2.14841
upperback -2.66688 -1.17492 0.696799
thorax -7.23282 -0.460941 2.10658
lowerneck -14.0926 0.295258 -4.04255
upperneck -1.6747 0.753665 7.5028
head 1.90601 0.596564 3.2533
rclavicle 1.46107e-014 1.90833e-014
rhumerus -7.31052 19.0843 -94.6279
rradius 110.321
rwrist 33.1189
rhand 48.2872 -10.1004
rfingers 7.12502
rthumb 68.7925 -9.34115
lclavicle 1.46107e-014 1.90833e-014
lhumerus -31.2256 -30.8187 112.422
lradius 111.615
lwrist -69.1527
lhand 41.6792 64.6516
lfingers 7.12502
lthumb 63.7717 73.7494
rfemur -26.787 25.257 16.1848
rtibia 23.5604
rfoot -4.41563 -29.4467
rtoes -0.752847
lfemur -17.4345 -28.3388 -17.6965
ltibia 17.1316
lfoot -13.5746 24.1382
ltoes 3.69945
1446
root 13.1115 16.5984 -12.9662 12.0623 -26.7622 2.47767
lowerback 8.0109 -0.695411 -2.34313
upperback -2.70103 -1.1402 0.687419
thorax -7.28234 -0.434127 2.20258
lowerneck -14.3129 0.273558 -4.19561
upperneck -1.60103 0.746317 7.62362
head 1.97295 0.601497 3.33037
rclavicle 3.13086e-014 3.02153e-014
rhumerus -7.37872 19.0213 -94.5176
rradius 110.422
rwrist 33.1449
rhand 48.4911 -10.0415
rfingers 7.12502
rthumb 68.9343 -8.90322
lclavicle 3.13086e-014 3.02153e-014
lhumerus -31.4143 -30.8133 112.656
lradius 111.603
lwrist -69.222
lhand 41.4045 64.7339
lfingers 7.12502
lthumb 63.5487 74.1558
rfemur -26.8972 25.0556 16.048
rtibia 23.6045
rfoot -4.24262 -29.1375
rtoes -0.983962
lfemur -17.4784 -28.0676 -17.8604
ltibia 17.0849
lfoot -13.5334 23.8927
ltoes 3.49063
1447
root 13.1101 16.6 -12.9703 12.1915 -26.8393 2.50493
lowerback 7.89984 -0.712818 -2.15999
upperback -2.74369 -1.15517 0.491811
thorax -7.26974 -0.454797 1.89394
lowerneck -14.466 0.267355 -4.2306
upperneck -1.48829 0.731624 7.8986
head 2.0425 0.606649 3.43835
rclavicle -1.48095e-014 -9.93923e-015
rhumerus -7.4705 18.9746 -94.7993
rradius 110.378
rwrist 33.0733
rhand 47.9771 -10.021
rfingers 7.12502
rthumb 68.575 -9.82831
lclavicle -1.48095e-014 -9.93923e-015
lhumerus -31.6422 -30.8075 112.487
lradius 111.66
lwrist -69.1905
lhand 41.9339 64.6482
lfingers 7.12502
lthumb 63.9776 73.4404
rfemur -27.1195 24.9219 15.9838
rtibia 23.681
rfoot -4.36151 -29.0488
rtoes -1.38051
lfemur -17.6023 -27.798 -17.8414
ltibia 16.9921
lfoot -13.4861 23.7345
ltoes 3.61729
1448
root 13.109 16.599 -12.9751 12.2229 -26.8815 2.5221
lowerback 7.89329 -0.712616 -2.09489
upperback -2.75632 -1.15498 0.389694
thorax -7.28253 -0.460035 1.7499
lowerneck -14.4941 0.27931 -4.11455
upperneck -1.47531 0.729594 7.85826
head 2.05123 0.604805 3.40232
rclavicle -1.90833e-014 6.95746e-015
rhumerus -7.5527 18.9499 -94.952
rradius 110.292
rwrist 33.0939
rhand 47.3774 -9.95511
rfingers 7.12502
rthumb 68.1485 -10.8251
lclavicle -1.90833e-014 6.95746e-015
lhumerus -31.8122 -30.806 112.434
lradius 111.637
lwrist -69.111
lhand 42.1725 64.5343
lfingers 7.12502
lthumb 64.1698 73.0355
rfemur -27.1921 24.9473 15.9446
rtibia 23.7072
rfoot -4.22067 -29.1144
rtoes -2.29584
lfemur -17.6508 -27.8295 -17.8179
ltibia 16.963
lfoot -13.4971 23.8398
ltoes 3.62138
1449
root 13.1066 16.5987 -12.9766 12.2012 -26.8794 2.51185
lowerback 8.09384 -0.641731 -2.50477
upperback -2.83174 -1.09156 0.664049
thorax -7.47083 -0.398898 2.26581
lowerneck -14.4901 0.26822 -4.24309
upperneck -1.45268 0.744535 7.60701
head 2.0556 0.605103 3.3399
rclavicle -8.76143e-014 1.70955e-014
rhumerus -7.66958 19.0075 -94.5309
rradius 110.276
rwrist 33.1321
rhand 47.4463 -9.87695
rfingers 7.12502
rthumb 68.1979 -10.627
lclavicle -8.76143e-014 1.70955e-014
lhumerus -31.8488 -30.5979 112.897
lradius 111.52
lwrist -69.2612
lhand 42.3957 64.4248
lfingers 7.12502
lthumb 64.3489 72.6498
rfemur -27.1345 24.8511 16.0096
rtibia 23.6896
rfoot -4.3548 -29.0147
rtoes -2.06534
lfemur -17.6319 -27.7961 -17.8263
ltibia 16.9855
lfoot -13.4173 23.8786
ltoes 3.33892
1450
root 13.104 16.6008 -12.9755 12.2581 -26.8352 2.37345
lowerback 7.92577 -0.734425 -2.07482
upperback -2.68756 -1.17815 0.441698
thorax -7.22611 -0.472281 1.79624
lowerneck -14.6638 0.385647 -3.92813
upperneck -1.51404 0.849404 7.71837
head 2.05884 0.661933 3.32702
rclavicle -9.66093e-014 3.77691e-015
rhumerus -7.39507 18.8886 -94.8764
rradius 110.164
rwrist 33.2647
rhand 47.5814 -9.6217
rfingers 7.12502
rthumb 68.2945 -10.135
lclavicle -9.66093e-014 3.77691e-015
lhumerus -31.5455 -30.6514 112.287
lradius 111.543
lwrist -69.425
lhand 42.9772 64.3624
lfingers 7.12502
lthumb 64.8124 71.8485
rfemur -27.0967 24.6244 16.2239
rtibia 23.6727
rfoot -4.61778 -28.7962
rtoes -1.65863
lfemur -17.6406 -28.1525 -17.6272
ltibia 16.9924
lfoot -13.3835 24.2257
ltoes 3.72538
1451
root 13.1036 16.6011 -12.9748 12.2936 -26.8264 2.32927
lowerback 7.93265 -0.76802 -1.95757
upperback -2.70172 -1.21324 0.405436
thorax -7.24642 -0.495366 1.69736
lowerneck -14.7488 0.463149 -3.86477
upperneck -1.39367 0.937733 7.70995
head 2.10903 0.708656 3.32144
rclavicle -3.01656e-014 -6.55989e-015
rhumerus -7.43747 18.9031 -94.937
rradius 110.107
rwrist 33.2908
rhand 47.9429 -9.71117
rfingers 7.12502
rthumb 68.5509 -9.58026
lclavicle -3.01656e-014 -6.55989e-015
lhumerus -31.5475 -30.5462 112.216
lradius 111.564
lwrist -69.513
lhand 43.1631 64.3336
lfingers 7.12502
lthumb 64.9596 71.5775
rfemur -27.1239 24.7036 16.2363
rtibia 23.6616
rfoot -4.33391 -28.8463
rtoes -2.38598
lfemur -17.6577 -28.497 -17.5195
ltibia 16.9694
lfoot -13.4035 24.5333
ltoes 3.85848
1452
root 13.1029 16.6014 -12.9742 12.2248 -26.8116 2.451
lowerback 7.96307 -0.780015 -1.99074
upperback -2.71463 -1.23884 0.331753
thorax -7.27765 -0.507717 1.64291
lowerneck -14.6035 0.468181 -3.84454
upperneck -1.47687 0.943251 7.69961
head 2.05382 0.707462 3.30953
rclavicle 2.64881e-014 2.20651e-014
rhumerus -7.47712 18.8699 -95.0095
rradius 110.057
rwrist 33.2431
rhand 48.5074 -10.3912
rfingers 7.12502
rthumb 68.9456 -9.22239
lclavicle 2.64881e-014 2.20651e-014
lhumerus -31.6031 -30.5191 112.182
lradius 111.471
lwrist -69.6089
lhand 42.9517 64.2836
lfingers 7.12502
lthumb 64.7922 71.8027
rfemur -27.1228 24.9952 16.046
rtibia 23.6824
rfoot -4.1721 -29.1347
rtoes -2.23345
lfemur -17.5794 -28.0734 -17.7292
ltibia 16.8969
lfoot -13.3665 24.1127
ltoes 3.30126
1453
root 13.1 16.6024 -12.9737 12.2115 -26.8069 2.50864
lowerback 7.90951 -0.802 -2.10383
upperback -2.67748 -1.27794 0.344744
thorax -7.20301 -0.522758 1.72395
lowerneck -14.5396 0.510413 -3.71616
upperneck -1.58775 0.989105 7.50345
head 1.99982 0.721227 3.21535
rclavicle -1.08338e-014 1.47101e-014
rhumerus -7.38332 18.8955 -94.9719
rradius 110.035
rwrist 33.1874
rhand 48.9231 -10.6338
rfingers 7.12502
rthumb 69.2314 -8.67496
lclavicle -1.08338e-014 1.47101e-014
lhumerus -31.4688 -30.304 112.132
lradius 111.267
lwrist -69.6702
lhand 42.3849 64.199
lfingers 7.12502
lthumb 64.3403 72.4374
rfemur -27.1492 25.0954 15.965
rtibia 23.7277
rfoot -4.25882 -29.0977
rtoes -0.650305
lfemur -17.5245 -27.7941 -17.8199
ltibia 16.8044
lfoot -13.3921 23.8476
ltoes 3.828
1454
root 13.0973 16.6009 -12.9745 12.243 -26.8816 2.59711
lowerback 7.8254 -0.793828 -2.32628
upperback -2.67886 -1.28561 0.393892
thorax -7.15037 -0.516074 1.89997
lowerneck -14.6266 0.549052 -3.63082
upperneck -1.46175 1.02967 7.2825
head 2.05395 0.737529 3.12852
rclavicle 5.96354e-015 -2.5842e-014
rhumerus -7.3436 18.9335 -94.8198
rradius 110.058
rwrist 33.2664
rhand 48.8836 -10.2148
rfingers 7.12502
rthumb 69.2044 -8.33191
lclavicle 5.96354e-015 -2.5842e-014
lhumerus -31.3578 -30.0633 112.176
lradius 111.051
lwrist -69.5991
lhand 41.5918 63.9971
lfingers 7.12502
lthumb 63.7008 73.1986
rfemur -27.2553 25.0321 15.8662
rtibia 23.7499
rfoot -4.06173 -28.9087
rtoes -0.359553
lfemur -17.5874 -28.4654 -17.7489
ltibia 16.7473
lfoot -13.4677 24.5149
ltoes 4.71777
